# xmcd
#
# Track frame offsets: 
#        150
#        18236
#        34312
#        51680
#        75134
#        92779
#        110102
#        127570
#        146469
#        164044
#
# Disc length: 2471 seconds
#
# Revision: 1
# Processed by: cddbd v1.5.2PL0 Copyright (c) Steve Scherf et al.
# Submitted via: ExactAudioCopy v1.3
#
DISCID=7f09a50a
DTITLE=Jenny Queen - Girls Who Cry Need Cake
DYEAR=2003
DGENRE=Pop
TTITLE0=Drowning Slowly
TTITLE1=Due South
TTITLE2=66 Days
TTITLE3=Porcelain
TTITLE4=Lullabye for a Ghost
TTITLE5=Kentucky Turn
TTITLE6=Between the Riverank and the Highway
TTITLE7=End of the Line
TTITLE8=Maybe the Moon
TTITLE9=Ten Feet Tall
EXTD=YEAR: 2003 ID3G: 0
EXTT0=
EXTT1=
EXTT2=
EXTT3=
EXTT4=
EXTT5=
EXTT6=
EXTT7=
EXTT8=
EXTT9=
PLAYORDER=
